# xmcd
#
# Track frame offsets: 
#        150
#        26042
#        41909
#        67742
#        89150
#        108624
#        127209
#        146682
#        185952
#        213132
#        246923
#        279317
#
# Disc length: 4178 seconds
#
# Revision: 0
# Processed by: cddbd v1.5.1PL2 Copyright (c) Steve Scherf et al.
# Submitted via: ExactAudioCopy v0.95b4
#
DISCID=c010500c
DTITLE=Nerak Roth Patterson - Brown Angel
DYEAR=2005
DGENRE=
TTITLE0=Brown Angel
TTITLE1=Everybody counts
TTITLE2=She Loves Me Too
TTITLE3=It Ain't Over
TTITLE4=One Night Stand
TTITLE5=Walkin' Alone
TTITLE6=Lovin' Each Other
TTITLE7=Hotsauce-N-Blues
TTITLE8=Raisin' Hell
TTITLE9=Bluesdriver
TTITLE10=She Don't Need Anybody
TTITLE11=Brown Angel Blues
EXTD=
EXTT0=
EXTT1=
EXTT2=
EXTT3=
EXTT4=
EXTT5=
EXTT6=
EXTT7=
EXTT8=
EXTT9=
EXTT10=
EXTT11=
PLAYORDER=
